<svg width="1080" height="1080" version="1.1" xmlns="http://www.w3.org/2000/svg" desc="Created with imagetracer.js version 1.2.6" ><path fill="rgb(0,0,0)" stroke="rgb(0,0,0)" stroke-width="1" opacity="1" d="M 0 0 L 1080 0 L 1080 1080 L 0 1080 L 0 0 Z M 680 67 L 674 69 L 666 69 L 660 71 L 655 71 L 627 80 Q 601 91 583 108 Q 558 130 543 161 L 536 178 L 531 197 L 530 208 L 529 209 L 529 224 L 528 225 L 528 290 L 529 291 L 529 306 L 531 313 L 531 318 Q 542 364 570 394 Q 592 418 625 433 L 656 443 L 661 443 L 667 445 L 676 445 L 677 446 L 712 445 L 731 441 Q 766 431 791 410 Q 814 390 830 363 L 843 332 L 849 302 L 849 213 L 847 207 L 847 200 L 845 190 Q 839 169 830 152 L 814 128 L 801 115 L 801 113 L 776 93 L 749 79 L 735 74 L 713 69 Q 703 70 698 67 L 680 67 Z M 594 467 L 574 471 L 551 478 L 514 495 Q 481 514 456 540 L 115 540 L 115 1025 L 600 1025 L 600 1025 L 600 910 L 918 910 L 918 536 Q 895 513 866 496 L 825 477 L 801 470 L 796 470 L 784 467 L 777 467 L 761 475 L 735 483 L 721 485 L 716 487 L 706 487 L 705 488 L 674 488 L 673 487 L 663 487 L 657 485 L 652 485 L 620 476 L 601 467 L 594 467 Z " /><path fill="rgb(200,181,100)" stroke="rgb(200,181,100)" stroke-width="1" opacity="1" d="M 679.5 67 L 697.5 67 Q 702.9 70.1 712.5 69 L 734.5 74 L 748.5 79 L 775.5 93 L 801 113 L 801 114.5 L 814 127.5 L 830 151.5 Q 839.5 168.5 845 189.5 L 847 199.5 L 847 206.5 L 849 212.5 L 849 301.5 L 843 331.5 L 830 362.5 Q 814.2 390.2 790.5 410 Q 765.8 430.8 730.5 441 L 711.5 445 L 676.5 446 L 675.5 445 L 666.5 445 L 660.5 443 L 655.5 443 L 624.5 433 Q 592.3 418.2 570 393.5 Q 542.1 363.9 531 317.5 L 531 312.5 L 529 305.5 L 529 290.5 L 528 289.5 L 528 224.5 L 529 223.5 L 529 208.5 L 530 207.5 L 531 196.5 L 536 177.5 L 543 160.5 Q 558 129.5 582.5 108 Q 601.4 90.9 626.5 80 L 654.5 71 L 659.5 71 L 665.5 69 L 673.5 69 L 679.5 67 Z M 689 69 L 688 70 L 674 70 L 666 72 L 659 72 L 632 80 Q 600 93 578 115 Q 555 136 542 168 L 535 188 L 532 203 L 531 219 L 530 220 L 530 296 L 531 297 L 531 304 L 532 305 L 532 312 L 534 322 Q 544 362 568 389 Q 585 409 610 423 L 630 433 L 644 438 L 661 442 L 678 443 L 679 444 L 700 444 L 701 443 L 717 442 L 746 434 Q 775 423 796 403 L 805 393 L 808 391 Q 825 371 836 346 L 844 320 L 846 302 L 847 301 L 847 214 L 846 213 L 846 205 L 844 199 L 844 194 L 838 174 L 830 156 L 817 135 L 807 123 Q 787 99 758 85 L 735 76 L 723 74 L 719 72 L 706 71 L 705 70 L 691 70 L 689 69 Z " /><path fill="rgb(200,181,100)" stroke="rgb(200,181,100)" stroke-width="1" opacity="1" d="M 593.5 467 L 600.5 467 L 619.5 476 L 651.5 485 L 656.5 485 L 662.5 487 L 672.5 487 L 673.5 488 L 704.5 488 L 705.5 487 L 715.5 487 L 720.5 485 L 734.5 483 L 760.5 475 L 776.5 467 L 783.5 467 L 795.5 470 L 800.5 470 L 824.5 477 L 865.5 496 Q 894.9 512.6 918 535.5 L 917.5 538 Q 886.4 506.6 843.5 487 L 823.5 479 L 803.5 473 L 783.5 469 L 776.5 469 L 758.5 478 L 722.5 488 L 715.5 488 L 707.5 490 L 669.5 490 L 639.5 484 L 619.5 478 L 600.5 469 L 593.5 469 L 553.5 479 L 513.5 497 L 478.5 521 L 458.5 540 L 456.5 540 L 463.5 532 Q 485.9 510.9 513.5 495 L 550.5 478 L 573.5 471 L 593.5 467 Z " /><path fill="rgb(200,181,100)" stroke="rgb(200,181,100)" stroke-width="1" opacity="1" d="M 917.5 906 L 918 910 L 600.5 910 L 600 907 L 916.5 907 L 917.5 906 Z " /><path fill="rgb(254,214,87)" stroke="rgb(254,214,87)" stroke-width="1" opacity="1" d="M 688.5 69 L 690.5 70 L 704.5 70 L 705.5 71 L 718.5 72 L 737 77.5 L 736.5 79 L 740.5 78 L 757.5 85 L 775.5 95 Q 793.1 106.9 807 122.5 L 817 134.5 L 830 155.5 L 838 176 L 835 174.5 L 834 172.5 L 836 172.5 Q 836.8 170.3 834.5 171 L 831 164.5 L 832 162.5 L 830 162.5 L 831 161.5 Q 827.9 159.8 829.5 158 Q 827.3 158.8 828 156.5 L 826.5 152 L 825 152.5 L 826 150.5 L 822.5 145 L 821 145.5 Q 823.3 144.3 820.5 143 L 818 141.5 L 819 139.5 L 815 137.5 Q 814.8 131.8 811.5 129 L 810 129.5 Q 812.3 128.3 809.5 127 L 808 127.5 L 806.5 124 Q 804.3 124.8 805 122.5 L 800.5 117 L 799.5 118 L 795 113.5 L 794.5 112 L 793.5 113 L 788 107.5 L 788.5 106 L 778.5 99 Q 777.3 101.2 776 98.5 L 775.5 97 Q 773.8 99.8 772 95.5 L 771.5 94 L 769.5 95 L 767 93.5 L 767.5 92 L 761.5 88 L 757 88 Q 758.3 85 754.5 86 L 750.5 83 L 748 84 L 747.5 82 L 746 82.5 Q 746.8 80.3 744.5 81 L 743 81.5 L 742.5 80 L 741.5 82 L 739.5 79 L 735.5 80 L 728.5 76 L 727 76.5 Q 727.8 73.9 724.5 75 L 724.5 76 L 726 76.5 L 724.5 77 L 721 76 L 720.5 74 L 716 75 Q 717.3 71.7 712.5 73 L 708.5 73 L 700 72.5 L 705 71.5 L 691.5 71 L 689.5 72 L 689.5 70 L 686.5 72 L 683.5 73 L 683.5 72 L 686 71.5 L 673.5 71 L 673.5 72 L 678 72.5 L 667.5 73 L 666.5 74 L 661.5 73 L 661.5 75 L 657.5 74 L 657 76 L 651.5 75 L 651.5 76 L 653 76.5 L 651.5 77 L 649 76 L 648.5 78 L 647.5 76 Q 646 79.5 644.5 77 L 643 77.5 L 643.5 79 L 642 78.5 L 641.5 80 L 639.5 79 L 637 80 Q 638 83 635 82 L 634 79.5 L 658.5 72 L 665.5 72 L 673.5 70 L 687.5 70 L 688.5 69 Z " /><path fill="rgb(254,214,87)" stroke="rgb(254,214,87)" stroke-width="1" opacity="1" d="M 631.5 80 Q 634.5 79.2 633 83 L 630.5 84 L 630.5 82 Q 628.3 81.3 629 83.5 L 626.5 84 L 620 86.5 L 620.5 88 L 618.5 88 L 616 88.5 L 616.5 90 L 614.5 89 L 613.5 92 L 611.5 92 L 607.5 95 L 606 94.5 L 604.5 97 L 601.5 99 L 598.5 101 L 597 100.5 L 595.5 103 L 594.5 102 L 590.5 106 L 587.5 108 L 584 110.5 L 584.5 112 L 579 115.5 Q 579.5 120.5 575.5 121 L 574.5 120 L 570 124.5 L 566.5 131 L 565 130.5 L 564.5 134 L 563 133.5 L 562.5 136 L 561 135.5 L 562 139 L 559.5 138 L 559 141 L 557 141.5 L 557.5 143 L 556 143.5 L 556.5 145 L 554 146.5 L 555 147.5 L 552 150.5 L 552 152.5 L 552 156 Q 549.3 154.9 550 157.5 L 546 162.5 L 546.5 164 L 545 163.5 L 546 166.5 L 545 166.5 L 544.5 165 L 541 173.5 L 542 176.5 L 541 176.5 L 540.5 175 L 539 179.5 L 540 183 L 538 183.5 L 538 185.5 L 537.5 190 L 536 189.5 L 537 194.5 L 536 194.5 L 535.5 193 L 535 195.5 L 536 198.5 L 534 198.5 L 535 207 Q 532 205.8 533 209.5 L 534.5 212 L 533 212.5 Q 535.5 214 532 215.5 L 534 218.5 L 533 221 L 531 221.5 L 531 294.5 L 533 294.5 L 534 298 Q 531 296.8 532 300.5 L 534 300.5 L 533 302.5 L 534.5 305 L 533 305.5 L 535 306 L 535 312.5 L 536 313.5 L 534 314 L 534.5 316 L 536 315.5 L 535 319.5 Q 538.6 320.9 538 326.5 L 537 328.5 L 539 328.5 L 538 331.5 L 540 331.5 L 540 336.5 L 542 337 L 542 338.5 L 541 340.5 L 544.5 347 L 546 347.5 L 545 348.5 L 548 351.5 L 548 357 L 550.5 357 L 550.5 359 L 552 359.5 L 550 360.5 L 553 362.5 L 552.5 364 L 554 364.5 L 553.5 366 L 557 368.5 L 556 370.5 L 559 372.5 L 558.5 374 L 562 376.5 L 565 380.5 Q 562.5 382 566 383.5 L 569.5 388 L 571 388.5 Q 568.8 389.8 571.5 391 L 574 391 Q 572.9 393.7 575.5 393 L 578 394 L 577 396.5 L 585 402 L 589.5 408 L 593 409.5 L 594.5 412 L 596.5 411 L 597.5 414 L 599 413.5 L 599.5 415 Q 601 412.5 602.5 416 L 604 416.5 L 603.5 418 Q 607.3 417.3 608 419.5 Q 607.3 421.8 609.5 421 L 613.5 424 L 615.5 423 L 621 425 L 622.5 428 L 626.5 430 L 628 429.5 L 627.5 431 L 630.5 430 L 633.5 433 L 634.5 432 L 644 435.5 Q 643.3 437.8 645.5 437 L 645.5 435 L 658 438.5 L 657.5 440 Q 659.8 440.8 659 438.5 L 661 439.5 L 660.5 441 L 665 441 Q 664 438 667 439 Q 665.8 442 669.5 441 L 674.5 442 L 675.5 441 L 686.5 441 L 690.5 442 L 691.5 441 L 699.5 441 L 702.5 442 L 704.5 441 L 707.5 442 L 709 441.5 L 708.5 443 L 700.5 443 L 699.5 444 L 678.5 444 L 677.5 443 L 660.5 442 L 643.5 438 L 629.5 433 L 609.5 423 Q 585.3 409.2 568 388.5 Q 546.1 363.9 536 327.5 L 536.5 326 Q 533.5 326.9 535 322.5 L 532 311.5 L 532 304.5 L 530 295.5 L 530 219.5 L 531 218.5 L 531 210.5 L 534 192 L 536 191.5 L 535 187.5 Q 548.1 143.1 577.5 115 Q 599.8 92.8 631.5 80 Z M 534 202 L 533 205 L 534 205 L 534 202 Z M 534 307 L 533 312 L 534 312 L 534 307 Z M 682 442 L 682 443 L 684 443 L 682 442 Z " /><path fill="rgb(254,214,87)" stroke="rgb(254,214,87)" stroke-width="1" opacity="1" d="M 838.5 177 L 844 193.5 L 844 198.5 L 846 204.5 L 846 212.5 L 847 213.5 L 847 300.5 L 846 301.5 L 844 319.5 L 838.5 337 L 836 335.5 L 839 333.5 L 838 331.5 Q 841.5 330 839 328.5 Q 838.3 325.9 841 327 L 841 323.5 L 841.5 319 L 843 319.5 L 842 314.5 L 845 303.5 L 844 300.5 Q 843.3 297.9 846 299 L 846 296.5 L 845 295.5 L 845 219.5 L 846 215 Q 842.7 216.3 844 211.5 L 845 206.5 L 843 201.5 L 843.5 200 Q 841.3 200.8 842 198.5 L 843 193.5 L 841 186 Q 838 187.3 839 183.5 L 839 181.5 L 838.5 180 L 837 180.5 L 838.5 177 Z " /><path fill="rgb(254,214,87)" stroke="rgb(254,214,87)" stroke-width="1" opacity="1" d="M 532.5 222 L 533 292.5 L 532 292.5 L 532.5 222 Z " /><path fill="rgb(254,214,87)" stroke="rgb(254,214,87)" stroke-width="1" opacity="1" d="M 836.5 338 Q 838.8 337.3 838 339.5 L 836 339.5 L 837 342.5 L 831 356.5 L 821 373.5 L 808 391 L 805 392.5 L 795.5 403 Q 776.4 420.9 750.5 432 L 726.5 440 L 710.5 442 L 711 440.5 L 711.5 439 L 712 441 Q 717.1 442 718.5 438 L 719 440 L 721 439.5 L 720.5 438 L 722 438.5 Q 721.1 435.1 726.5 437 L 728 436.5 L 728.5 438 L 729 436 L 733.5 437 L 733.5 436 L 732 435.5 L 736.5 434 L 739.5 435 L 739.5 433 L 743.5 432 L 745.5 433 L 745.5 431 L 747.5 432 L 747.5 430 L 749.5 431 L 760 426 L 760.5 424 Q 762 426.5 763.5 423 Q 767.3 423.8 768 421.5 Q 765.7 420.3 768.5 419 L 771.5 418 Q 772.8 420.3 774 417.5 L 775.5 415 L 777.5 415 L 781 413.5 L 780.5 412 L 785 411 L 785.5 408 Q 786.8 410.3 788 407.5 L 789.5 405 L 796 402 L 800.5 394 Q 802.8 394.8 802 392.5 L 809 387.5 L 810 384 Q 812.7 385.1 812 382.5 Q 815.7 379.4 816 374 Q 818.7 375.1 818 372.5 L 822 370 L 827 361.5 L 827 358.5 L 830 355.5 L 830 353.5 L 832.5 348 Q 834.8 348.8 834 346.5 L 832 346.5 L 833.5 344 L 835 344.5 L 834 342.5 L 836 342.5 L 835 339.5 L 836.5 338 Z " /><path fill="rgb(254,214,87)" stroke="rgb(254,214,87)" stroke-width="1" opacity="1" d="M 593.5 469 L 600.5 469 L 625.5 480 L 655.5 488 L 662 488.5 L 654.5 490 L 651.5 488 L 643 487 Q 644.1 484.3 641.5 485 L 638.5 486 L 635 485 Q 636.1 482.3 633.5 483 L 633.5 485 L 630.5 483 L 622 482 L 621.5 480 L 620 480.5 L 620.5 479 L 618.5 480 L 615.5 477 L 614.5 478 L 613 477.5 L 613.5 476 L 604.5 472 L 603 472.5 L 602.5 471 L 601 471.5 Q 601.6 468.8 595.5 470 L 595.5 472 Q 590 470.5 588.5 473 L 583.5 472 Q 580.5 474.8 575 474 L 574.5 476 L 571.5 475 L 571.5 477 L 567.5 476 L 567.5 478 L 565.5 477 Q 564 480.5 562.5 478 Q 560.3 477.3 561 479.5 L 559 479.5 L 558.5 481 L 557.5 479 L 555.5 482 L 551.5 483 L 550 482.5 L 549.5 484 L 548.5 482 L 546.5 485 L 544.5 484 L 544 486 L 541.5 485 L 541 487 L 535 488 L 534.5 490 L 532.5 490 L 522 494.5 L 522.5 496 Q 517.1 494.1 518 497.5 L 516.5 497 L 515 497.5 L 516 499.5 L 515 499.5 Q 515.8 497.3 513.5 498 L 512.5 501 L 511 500.5 L 511 502 Q 507.3 500.5 508 503.5 Q 506.8 506.3 505.5 504 L 499 507 L 497.5 511 L 495.5 510 L 495.5 512 L 492.5 514 L 491.5 513 L 488.5 516 L 485 517.5 L 485.5 519 L 484.5 518 L 480.5 522 Q 478.3 521.3 479 523.5 L 475.5 528 L 471.5 529 L 462 537.5 Q 463.3 541.3 459.5 540 L 468.5 530 Q 489.8 510.8 515.5 496 L 553.5 479 L 593.5 469 Z " /><path fill="rgb(254,214,87)" stroke="rgb(254,214,87)" stroke-width="1" opacity="1" d="M 776.5 469 L 795.5 471 L 829 481.5 L 828.5 484 Q 826.3 484.8 827 482.5 L 825 482.5 L 825.5 481 L 822.5 482 Q 821 478.5 819.5 481 L 816 480 Q 817.1 477.3 814.5 478 L 813 478.5 Q 813.8 476.3 811.5 477 L 805.5 475 L 803 476 Q 804.3 472.7 799.5 474 L 798 474.5 Q 798.8 471.9 795.5 473 Q 794.2 470.7 789.5 472 L 788 472.5 L 787.5 471 L 783.5 472 L 783.5 470 L 777 470.5 L 777.5 472 L 775.5 471 L 774.5 473 L 772.5 472 L 769 474.5 L 768.5 476 L 766.5 475 L 761 477 L 760.5 479 L 759 478.5 Q 759.8 480.8 757.5 480 L 755.5 480 Q 752.2 478.9 753 481.5 L 751.5 481 L 750 481.5 L 750.5 483 L 737.5 486 L 734.5 485 L 734.5 487 L 732.5 486 L 726.5 489 L 722.5 489 L 715 488.5 L 722.5 488 L 747.5 481 L 749 481.5 Q 748.2 478.9 751.5 480 Q 765.6 476.1 776.5 469 Z " /><path fill="rgb(254,214,87)" stroke="rgb(254,214,87)" stroke-width="1" opacity="1" d="M 830 482 Q 882.2 501.5 918 538.5 L 918 905.5 L 916.5 907 L 627.5 907 L 627 905 L 629.5 904 L 630.5 905 L 914.5 905 L 917 904.5 L 917 538.5 L 914.5 538 Q 916.2 536 912.5 534 Q 911.3 536.3 910 533.5 L 906.5 529 Q 903.2 530.1 904 527.5 L 902 527.5 L 900.5 525 L 895 521.5 L 893.5 518 L 891.5 518 L 889 517.5 L 889.5 516 L 887 515.5 L 887.5 514 L 884 513 L 883.5 511 L 881 512 L 880.5 509 L 878.5 510 L 877.5 507 L 876 507.5 L 876.5 506 L 874.5 507 L 872.5 504 L 871 504.5 L 869.5 502 L 868 502.5 L 867.5 501 L 866 501.5 Q 868.3 500.3 865.5 499 L 862 499.5 L 861.5 497 L 860 497.5 L 859.5 496 L 858.5 498 L 858 495 L 855.5 496 L 855.5 494 L 846.5 490 L 845 490.5 L 845.5 489 L 843.5 490 L 843 488 L 840.5 487 L 839.5 488 Q 837.7 484.9 836 486.5 L 835.5 485 L 833.5 486 L 833.5 484 L 830 485 L 830 482 Z " /><path fill="rgb(254,214,87)" stroke="rgb(254,214,87)" stroke-width="1" opacity="1" d="M 663.5 489 Q 668.3 487.7 669.5 490 L 707.5 490 Q 708.8 487.7 713.5 489 L 713.5 490 L 708.5 491 L 669.5 491 Q 668.3 488.8 663.5 490 L 663.5 489 Z " /><path fill="rgb(254,214,87)" stroke="rgb(254,214,87)" stroke-width="1" opacity="1" d="M 318.5 601 L 319 617.5 L 318 617.5 L 318.5 601 Z " /><path fill="rgb(254,214,87)" stroke="rgb(254,214,87)" stroke-width="1" opacity="1" d="M 453.5 601 L 454 617.5 L 453 617.5 L 453.5 601 Z " /><path fill="rgb(254,214,87)" stroke="rgb(254,214,87)" stroke-width="1" opacity="1" d="M 325.5 618 L 328 618.5 L 325.5 619 L 325.5 618 Z " /><path fill="rgb(254,214,87)" stroke="rgb(254,214,87)" stroke-width="1" opacity="1" d="M 443.5 618 L 447 618.5 L 443.5 619 L 443.5 618 Z " /><path fill="rgb(254,214,87)" stroke="rgb(254,214,87)" stroke-width="1" opacity="1" d="M 410.5 638 L 411 844.5 L 410 844.5 L 410.5 638 Z " /><path fill="rgb(254,214,87)" stroke="rgb(254,214,87)" stroke-width="1" opacity="1" d="M 237.5 855 L 238.5 857 L 237.5 855 Z " /><path fill="rgb(254,214,87)" stroke="rgb(254,214,87)" stroke-width="1" opacity="1" d="M 360.5 857 L 361 860.5 L 360 860.5 L 360.5 857 Z " /><path fill="rgb(254,214,87)" stroke="rgb(254,214,87)" stroke-width="1" opacity="1" d="M 241.5 859 L 242.5 861 L 241.5 859 Z " /><path fill="rgb(254,214,87)" stroke="rgb(254,214,87)" stroke-width="1" opacity="1" d="M 409.5 859 L 410 861.5 L 409 861.5 L 409.5 859 Z " /><path fill="rgb(254,214,87)" stroke="rgb(254,214,87)" stroke-width="1" opacity="1" d="M 341.5 918 L 335.5 925 L 341.5 918 Z " /><path fill="rgb(254,214,87)" stroke="rgb(254,214,87)" stroke-width="1" opacity="1" d="M 231.5 922 L 232.5 924 L 231.5 922 Z " /><path fill="rgb(254,214,87)" stroke="rgb(254,214,87)" stroke-width="1" opacity="1" d="M 197.5 927 L 198.5 929 L 197.5 927 Z " /><path fill="rgb(254,214,87)" stroke="rgb(254,214,87)" stroke-width="1" opacity="1" d="M 383.5 929 L 382.5 931 L 383.5 929 Z " /><path fill="rgb(254,214,87)" stroke="rgb(254,214,87)" stroke-width="1" opacity="1" d="M 374.5 938 L 373.5 940 L 374.5 938 Z " /><path fill="rgb(254,214,87)" stroke="rgb(254,214,87)" stroke-width="1" opacity="1" d="M 279.5 940 L 282 940.5 L 279.5 941 L 279.5 940 Z " /><path fill="rgb(254,214,87)" stroke="rgb(254,214,87)" stroke-width="1" opacity="1" d="M 292.5 940 L 295 940.5 L 292.5 941 L 292.5 940 Z " /><path fill="rgb(254,186,0)" stroke="rgb(254,186,0)" stroke-width="1" opacity="1" d="M 115 540 L 600 540 L 600 1025 L 115 1025 L 115 540 Z M 318 601 L 318 618 L 341 620 Q 350 622 356 627 Q 360 631 361 638 L 361 857 L 360 858 L 359 877 L 356 891 Q 352 905 344 916 Q 334 929 317 936 L 307 939 L 293 940 L 292 941 L 273 940 L 256 936 Q 241 931 231 922 Q 225 917 223 910 L 233 908 L 238 905 Q 246 899 249 888 Q 251 869 243 861 L 235 853 L 222 849 L 210 849 L 197 854 Q 186 861 183 877 L 183 894 L 186 907 L 190 917 L 197 928 Q 212 945 235 955 L 258 962 L 272 963 L 273 964 L 309 964 L 310 963 L 318 963 L 329 961 Q 356 955 374 940 Q 387 928 396 912 L 405 889 L 409 870 L 410 846 L 411 845 L 411 635 L 413 631 Q 418 623 428 621 L 437 619 L 454 618 L 454 602 L 454 601 L 318 601 Z " /><path fill="rgb(254,215,87)" stroke="rgb(254,215,87)" stroke-width="1" opacity="1" d="M 688 70 L 690 70.5 L 689.5 72 L 691.5 71 L 704.5 71 L 704.5 72 L 700 72.5 L 708.5 73 L 712.5 73 L 715.5 73 Q 714.5 76 719.5 75 L 721 74.5 Q 720.2 77.1 723.5 76 L 727 75 L 727.5 77 L 729.5 76 L 735.5 80 L 738.5 80 L 740 79.5 L 741.5 82 L 742.5 80 L 743.5 82 L 746 81 L 746.5 83 L 748 82.5 Q 747.3 84.8 749.5 84 L 751.5 84 L 757 86 Q 755.6 89.7 761.5 88 L 768 92.5 L 767.5 94 L 769.5 93 L 769.5 95 L 771.5 94 L 772.5 96 L 774 95.5 Q 771.8 96.8 774.5 98 L 776 97.5 L 776.5 99 Q 778 96.5 779.5 100 L 790 107.5 Q 787.3 109.3 791.5 111 L 793 110.5 Q 790.8 111.8 793.5 113 L 795 112.5 L 795.5 114 L 797 113.5 L 796 114.5 L 799.5 118 L 801 117.5 L 805 124 L 808 125.5 L 808.5 128 Q 810.3 125.3 812 129.5 L 816.5 139 L 819 139.5 L 818 141.5 L 823 145.5 L 826 150.5 L 825 152.5 L 827 152.5 L 828 158 L 830 158.5 L 829 159.5 L 832 162.5 L 833 164.5 L 832 167.5 L 833.5 170 L 835 169.5 L 834.5 171 Q 836.8 170.3 836 172.5 L 835 174.5 L 838 176 L 837 180.5 L 839 180.5 L 838 182.5 L 839 186 Q 842.3 184.7 841 189.5 Q 843.7 191.8 843 197.5 L 842 200 L 844 200.5 L 843 203.5 Q 845.8 205.2 845 210.5 L 844 215 Q 847.3 213.7 846 218.5 L 845 219.5 L 845 295.5 L 846 299 Q 843.3 297.9 844 300.5 L 845 303.5 L 842 315.5 L 843 319.5 L 841 323.5 L 841 327 Q 838.3 325.9 839 328.5 Q 841.5 330 838 331.5 L 839 333.5 L 836 335.5 L 838 336 Q 839.1 338.7 836.5 338 L 837 339.5 L 834.5 345 Q 833.2 342.8 832 345.5 L 832.5 347 L 834 346.5 Q 834.8 348.8 832.5 348 L 832.5 350 L 831 349.5 L 832 351.5 L 830 351.5 L 829 354.5 L 830 355.5 L 827 358.5 L 827 361.5 L 822 370 L 820 370.5 L 820.5 372 Q 819.3 369.8 818 372.5 L 819 374.5 Q 817 378.2 815 376.5 L 812 384 Q 809.3 382.9 810 385.5 L 804.5 392 Q 803.2 389.8 802 392.5 Q 802.8 394.8 800.5 394 L 796 402 L 789 405.5 L 789.5 407 L 788 406.5 L 786.5 409 L 785 408.5 Q 786.1 411.8 783.5 411 L 780 412.5 L 780.5 414 L 776.5 416 Q 775.3 413.8 774 416.5 L 771.5 420 L 768.5 419 L 766.5 423 Q 762.3 422.3 761.5 425 L 760 424.5 Q 760.8 426.8 758.5 426 L 744.5 433 L 741.5 432 L 739 433.5 L 739.5 435 L 735.5 436 L 732.5 435 L 732.5 436 L 734 436.5 L 731.5 437 L 729 436 L 728.5 438 L 727.5 436 L 722 437 L 720.5 440 Q 718.3 440.8 719 438.5 L 715.5 441 Q 711.1 442.5 712 439.5 L 711 439.5 L 709.5 442 L 707.5 442 L 704.5 441 L 702.5 442 L 699.5 441 L 687.5 442 L 686.5 441 L 675.5 441 L 670.5 442 L 667 441 Q 668 438 665 439 Q 666.4 442.7 660.5 441 L 659.5 438 L 659 440 L 657 439.5 L 657.5 438 L 646.5 436 L 644 437 L 643.5 435 L 642 435.5 L 642.5 434 Q 636.8 434.7 634.5 432 L 633.5 433 L 630.5 430 L 627.5 431 L 621 426.5 Q 621.8 424.3 619.5 425 L 614.5 423 Q 613 425.5 611.5 422 L 608 421 L 606.5 418 L 603 417.5 L 603.5 416 L 600.5 414 L 599 414.5 L 598.5 413 L 597 413.5 L 596.5 411 L 594.5 412 L 591.5 408 L 589.5 408 L 585 403.5 Q 585.8 401.3 583.5 402 L 575 394.5 L 575.5 393 Q 572.9 393.7 574 391 L 571.5 391 L 570.5 388 L 566 384.5 L 564 381.5 Q 566.3 380.3 563.5 379 L 562 379.5 L 562 377.5 L 559.5 374 L 557 372.5 L 557.5 371 L 556 370.5 L 557 368.5 L 553 365.5 L 553.5 364 L 551 362.5 L 551.5 361 L 550 360.5 L 552 359.5 L 550 358.5 L 550.5 357 L 548 357 L 548 351.5 L 545 350.5 L 545.5 347 L 543 345.5 L 541 339.5 L 542 337 Q 538 338.4 540 331.5 L 538 331.5 L 539 328.5 L 537 328.5 L 536 326.5 L 538 326.5 Q 538.6 320.9 535 319.5 L 536 315.5 L 534 315.5 Q 533.3 313.3 535.5 314 L 535 312.5 Q 536.5 305.5 533.5 306 L 533.5 305 L 535 304.5 Q 531.4 302.6 532 298 Q 534.7 299.1 534 296.5 L 532.5 294 L 531 294.5 L 531 221.5 L 533 221 L 533 219.5 L 534 217 Q 531.3 218.1 532 215.5 L 533.5 212 L 535 211.5 Q 532.2 210.4 533 207 Q 536.5 208.1 535 200.5 L 534 198.5 L 536 198.5 L 535 193.5 L 536 193.5 L 536.5 195 L 537 191.5 L 535 191.5 L 536.5 189 L 538 189.5 L 537 184.5 L 540 183 L 539 179.5 L 540.5 175 L 541.5 177 L 542 174.5 L 542 172.5 Q 543.5 163.5 549 158.5 L 548.5 157 L 550 157.5 Q 549.3 154.9 552 156 L 552 152.5 L 551 151.5 L 555 147.5 Q 552.8 146.2 555.5 145 L 557 144.5 L 556.5 143 L 558 142.5 L 557.5 141 Q 560.1 141.8 559 138.5 L 560.5 139 Q 562.8 139.8 562 137.5 L 561 135.5 L 563 135.5 L 563.5 133 L 565 133.5 L 565.5 130 L 567 130.5 L 567 128.5 L 574.5 120 Q 575.8 122.3 577 119.5 Q 574.8 118.3 577.5 117 L 579 117.5 L 580.5 114 L 585 111.5 Q 582.8 110.2 585.5 109 L 589 108 Q 587.9 105.3 590.5 106 L 594.5 102 Q 595.8 104.3 597 101.5 L 598.5 99 L 600.5 100 L 603 99 Q 601.9 96.3 604.5 97 L 604.5 95 L 606 95.5 L 607.5 93 Q 609 95.5 610.5 92 L 612.5 91 L 614 91.5 L 614.5 89 L 616.5 90 L 616.5 88 L 627.5 83 L 629 83.5 Q 628.3 81.3 630.5 82 L 633 83 Q 631.7 78.9 635 80 Q 634 83 637 82 Q 635.9 79.3 638.5 80 L 640.5 79 L 642 79.5 L 643.5 77 L 645.5 78 L 648 76.5 L 648.5 78 L 649 76 L 653.5 75 L 657 76 L 657.5 74 L 661.5 75 L 661.5 73 L 666.5 74 L 667.5 73 L 678 72.5 L 673 71.5 L 685.5 71 L 688 72 L 688 70 Z M 684 72 L 684 73 L 686 73 L 684 72 Z M 533 222 L 532 293 L 533 293 L 533 222 Z M 816 374 L 816 376 L 818 375 L 816 374 Z M 577 394 L 578 396 Q 579 393 577 394 Z " /><path fill="rgb(254,215,87)" stroke="rgb(254,215,87)" stroke-width="1" opacity="1" d="M 533.5 202 L 534 204.5 L 533 204.5 L 533.5 202 Z " /><path fill="rgb(254,215,87)" stroke="rgb(254,215,87)" stroke-width="1" opacity="1" d="M 533.5 307 L 534 311.5 L 533 311.5 L 533.5 307 Z " /><path fill="rgb(254,215,87)" stroke="rgb(254,215,87)" stroke-width="1" opacity="1" d="M 681.5 442 L 684 442.5 L 681.5 443 L 681.5 442 Z " /><path fill="rgb(254,215,87)" stroke="rgb(254,215,87)" stroke-width="1" opacity="1" d="M 595.5 470 Q 601.6 468.8 601 471.5 L 603 471.5 L 603.5 473 L 605.5 473 L 614 476.5 L 613.5 478 L 615.5 477 L 619.5 479 L 622 480.5 Q 621.1 483.5 625.5 482 L 630.5 483 L 632 482.5 L 631.5 484 L 635 483 Q 633.8 486 637.5 485 L 639 484.5 L 638.5 486 L 643 485 Q 641.8 488 645.5 487 L 655.5 490 Q 657 487.5 662.5 489 L 669.5 491 L 708.5 491 Q 713.5 488 722.5 489 L 723.5 490 L 727.5 488 L 732.5 486 L 734.5 487 L 734.5 485 L 739.5 486 L 739.5 484 L 743.5 485 L 751 482.5 L 750.5 481 L 752.5 482 L 753 480 L 756.5 481 L 759 480 L 759.5 478 L 761 478.5 Q 760.3 476.3 762.5 477 L 767.5 475 L 769 475.5 L 770.5 473 L 773.5 472 L 775 472.5 L 775.5 471 L 777.5 472 L 777.5 470 L 784 470.5 L 783.5 472 L 787.5 471 L 788.5 473 Q 789.8 470.7 794.5 472 L 798 473 L 798.5 475 L 803 474 Q 801.9 476.7 804.5 476 L 806.5 476 L 813 477 L 813.5 479 L 816 478 Q 814.9 480.7 817.5 480 L 819.5 481 L 819.5 479 L 823.5 482 L 823.5 480 L 827 482.5 Q 826.3 484.8 828.5 484 L 828.5 482 L 830 482 Q 828.5 485.8 831.5 485 L 833.5 484 L 833.5 486 L 835.5 485 L 836.5 487 L 837.5 486 L 841.5 488 Q 843.8 487.3 843 489.5 L 844.5 489 L 858 495 L 858.5 498 L 859.5 496 L 860.5 498 L 862 497.5 L 862.5 500 L 865.5 499 L 868 501.5 L 868.5 503 Q 869.8 500.8 871 503.5 L 871.5 505 L 873 504.5 L 874.5 507 L 876.5 506 Q 880.2 508 878.5 510 L 880.5 509 L 881 512 L 883.5 511 L 884 513 L 888 514.5 L 887.5 516 L 890 516.5 L 889.5 518 L 892.5 519 L 894 518.5 L 895.5 522 L 897 521.5 L 896.5 523 L 898.5 522 L 899.5 525 L 902 526.5 L 902.5 528 L 904 527.5 Q 903.2 530.1 906.5 529 L 911.5 535 Q 913.3 532.3 915 536.5 L 914.5 538 L 917 538.5 L 917 904.5 L 914.5 905 L 630.5 905 L 629.5 904 L 627 905 L 626.5 907 L 600 907 L 600 540 L 462.5 540 L 462 537.5 Q 466.4 531.4 474 528.5 L 473.5 527 L 475.5 528 L 479 522 L 492.5 512 L 494.5 512 L 496 511.5 L 495.5 510 L 497.5 511 L 499 507 L 506.5 503 L 508 503.5 L 508 502 Q 511.8 503.5 511 500.5 L 516.5 497 L 518 497.5 Q 517.1 494.1 522.5 496 L 522.5 494 L 533.5 489 L 535 489.5 Q 534.1 486.5 538.5 488 L 541 487 L 541.5 485 L 544 486 L 544.5 484 L 546.5 485 L 546.5 483 L 548 483.5 L 548.5 482 L 549.5 484 L 551.5 481 L 555.5 482 L 557.5 479 L 558.5 481 L 559.5 479 L 561 479.5 Q 560.3 477.3 562.5 478 L 566.5 478 L 568 477.5 L 567.5 476 L 573.5 475 L 575 475.5 Q 574.1 472.1 579.5 474 Q 581.8 471.3 587.5 472 L 589.5 472 L 596 471.5 L 595.5 470 Z " /><path fill="rgb(254,215,87)" stroke="rgb(254,215,87)" stroke-width="1" opacity="1" d="M 328.5 618 L 331 618.5 L 328.5 619 L 328.5 618 Z " /><path fill="rgb(254,215,87)" stroke="rgb(254,215,87)" stroke-width="1" opacity="1" d="M 414.5 628 L 413.5 630 L 414.5 628 Z " /><path fill="rgb(254,215,87)" stroke="rgb(254,215,87)" stroke-width="1" opacity="1" d="M 211.5 849 L 215 849.5 L 211.5 850 L 211.5 849 Z " /><path fill="rgb(254,215,87)" stroke="rgb(254,215,87)" stroke-width="1" opacity="1" d="M 216.5 849 L 220 849.5 L 216.5 850 L 216.5 849 Z " /><path fill="rgb(254,215,87)" stroke="rgb(254,215,87)" stroke-width="1" opacity="1" d="M 239.5 857 L 240.5 859 L 239.5 857 Z " /><path fill="rgb(254,215,87)" stroke="rgb(254,215,87)" stroke-width="1" opacity="1" d="M 360.5 861 L 361 863.5 L 360 863.5 L 360.5 861 Z " /><path fill="rgb(254,215,87)" stroke="rgb(254,215,87)" stroke-width="1" opacity="1" d="M 381.5 931 L 375.5 938 L 381.5 931 Z " /><path fill="rgb(254,215,87)" stroke="rgb(254,215,87)" stroke-width="1" opacity="1" d="M 208.5 938 L 209.5 940 L 208.5 938 Z " /><path fill="rgb(254,215,87)" stroke="rgb(254,215,87)" stroke-width="1" opacity="1" d="M 276.5 940 L 279 940.5 L 276.5 941 L 276.5 940 Z " /><path fill="rgb(254,215,87)" stroke="rgb(254,215,87)" stroke-width="1" opacity="1" d="M 274.5 963 L 277 963.5 L 274.5 964 L 274.5 963 Z " /><path fill="rgb(254,215,87)" stroke="rgb(254,215,87)" stroke-width="1" opacity="1" d="M 304.5 963 L 307 963.5 L 304.5 964 L 304.5 963 Z " /><path fill="rgb(254,254,254)" stroke="rgb(254,254,254)" stroke-width="1" opacity="1" d="M 319 601 L 452.5 601 L 453 601.5 L 453 618 L 441.5 618 L 440.5 619 L 429.5 620 Q 419 622.5 413 629.5 L 410 637.5 L 410 856.5 L 409 857.5 L 409 865.5 L 404 890.5 L 395 912.5 Q 385.5 930 370.5 942 L 349.5 954 L 331.5 960 L 314.5 963 L 304.5 963 L 303.5 964 L 277.5 964 L 276.5 963 L 266.5 963 L 250.5 960 L 235.5 955 Q 214.1 946.4 200 930.5 Q 183.5 913 183 879.5 L 186 867.5 L 194.5 856 L 203.5 851 L 214.5 850 L 215.5 849 L 231.5 852 Q 239.7 855.3 244 862.5 L 249 875.5 L 249 885.5 Q 246.6 897.6 238.5 904 L 227.5 909 L 223 909 L 224 914.5 L 233.5 925 L 257.5 937 L 276.5 941 L 296.5 941 L 297.5 940 L 308.5 939 L 327.5 931 L 343 917.5 L 353 900.5 L 358 884.5 L 359 873.5 L 360 872.5 L 360 864.5 L 361 863.5 L 361 635.5 Q 359.2 628.3 353.5 625 L 342.5 620 L 331.5 619 L 330.5 618 L 319 618 L 319 601 Z " /></svg>