<svg width="1080" height="1080" version="1.1" xmlns="http://www.w3.org/2000/svg" desc="Created with imagetracer.js version 1.2.6" ><path fill="rgb(0,0,0)" stroke="rgb(0,0,0)" stroke-width="1" opacity="0" d="M 0 0 L 1080 0 L 1080 1080 L 0 1080 L 0 0 Z M 664 67 L 661 69 L 656 69 Q 653 72 647 71 L 644 73 L 640 73 L 638 75 L 625 79 L 598 94 L 584 105 L 563 126 L 552 141 L 543 157 L 535 175 L 535 179 L 533 182 L 533 186 L 529 197 Q 530 205 527 210 L 527 304 L 529 311 L 529 318 L 537 345 L 544 360 L 564 390 Q 585 414 615 430 L 630 437 L 633 437 L 649 443 L 653 443 L 656 445 Q 662 444 666 447 L 677 447 L 678 448 L 712 447 L 743 439 Q 774 428 796 407 Q 798 408 797 406 L 801 403 L 803 400 L 807 397 Q 825 378 837 353 L 839 345 L 845 332 L 851 300 L 851 215 L 846 188 L 843 177 L 831 150 L 816 128 L 809 121 Q 810 118 807 119 L 806 116 Q 803 117 804 115 L 789 100 L 773 89 L 756 80 L 738 73 L 727 71 L 723 69 L 718 69 L 715 67 L 664 67 Z M 595 465 L 584 468 L 578 468 L 557 474 L 534 483 L 516 492 L 496 504 L 477 518 L 454 540 L 115 540 L 115 1025 L 600 1025 L 600 1025 L 600 910 L 918 910 L 918 534 L 889 509 Q 886 510 887 507 L 845 483 L 839 482 L 832 478 L 815 472 L 811 472 L 808 470 L 784 465 L 777 465 L 759 474 L 728 483 Q 720 482 716 485 L 695 486 L 694 487 L 685 487 L 675 485 L 662 485 L 658 483 L 646 482 L 636 478 L 622 475 L 601 465 L 595 465 Z " /><path fill="rgb(213,204,131)" stroke="rgb(213,204,131)" stroke-width="1" opacity="0.6470588235294118" d="M 663.5 67 L 713.5 67 L 716.5 69 L 730.5 71 L 752.5 79 L 770.5 88 Q 788.1 98.4 802 112.5 L 815 126.5 L 829 146.5 Q 838.7 163.3 845 183.5 L 850 208.5 L 850 220.5 L 851 221.5 L 851 295.5 L 850 296.5 L 850 307.5 Q 847.1 311.1 848 318.5 L 838 349.5 L 825 373.5 L 815 387.5 L 801 401.5 L 801 403 L 773.5 424 L 742.5 439 L 710.5 447 L 678.5 448 L 677.5 447 L 666.5 447 L 661.5 445 L 648.5 443 L 616.5 431 L 593.5 417 L 569 394.5 L 567.5 392 L 564 389.5 Q 549.3 371.2 539 348.5 L 529 316.5 L 529 309.5 L 527 301.5 L 527 212.5 L 531 189.5 L 539 165.5 L 553 139.5 L 567.5 121 Q 569.8 121.8 569 119.5 Q 584.7 101.7 605.5 89 L 629.5 77 L 632.5 77 L 647.5 71 L 660.5 69 L 663.5 67 Z M 687 69 L 686 70 L 671 70 L 670 71 L 658 72 L 634 79 Q 605 90 584 109 Q 564 126 551 149 L 537 180 L 530 215 L 530 300 L 535 328 Q 547 367 572 394 Q 588 411 609 423 Q 624 432 643 438 L 673 444 L 706 444 L 732 439 Q 766 429 791 408 Q 813 389 828 363 L 835 349 L 843 326 L 846 312 L 847 296 L 848 295 L 848 221 L 847 220 L 846 203 L 842 185 Q 829 144 803 118 Q 781 94 750 81 L 721 72 L 715 72 L 708 70 L 692 70 L 687 69 Z " /><path fill="rgb(213,204,131)" stroke="rgb(213,204,131)" stroke-width="1" opacity="0.6470588235294118" d="M 594.5 465 L 600.5 465 L 621.5 475 L 641.5 480 L 644.5 482 L 656.5 483 L 661.5 485 L 693.5 487 L 704.5 485 L 716.5 485 L 721.5 483 L 732.5 482 L 758.5 474 L 777.5 465 L 782.5 465 L 820.5 474 L 843.5 483 L 875.5 500 L 899.5 517 L 914.5 531 L 916 531 Q 915 534 918 533 L 918 536.5 L 915.5 535 Q 884.4 505.1 842.5 486 L 822.5 478 L 808.5 475 L 805.5 473 L 778.5 468 L 759.5 477 L 724.5 487 L 713.5 488 L 712.5 489 L 702.5 489 L 701.5 490 L 675.5 490 L 674.5 489 L 658.5 488 L 633.5 482 L 620.5 478 L 597.5 468 L 585.5 471 L 580.5 471 L 552.5 479 L 511.5 498 Q 481 515.5 457.5 540 L 454.5 540 L 462.5 531 L 476 520 Q 474.9 517.3 477.5 518 L 497.5 503 L 531.5 484 L 563.5 472 L 584.5 467 L 590.5 467 L 594.5 465 Z " /><path fill="rgb(213,204,131)" stroke="rgb(213,204,131)" stroke-width="1" opacity="0.6470588235294118" d="M 628.5 907 L 917.5 907 L 918 910 L 600.5 910 L 600 908 L 627.5 908 L 628.5 907 Z " /><path fill="rgb(254,214,87)" stroke="rgb(254,214,87)" stroke-width="1" opacity="1" d="M 686.5 69 L 691.5 70 L 707.5 70 L 714.5 72 L 720.5 72 L 749.5 81 Q 781.2 94.3 803 117.5 Q 829.3 144.2 842 184.5 L 846 202.5 L 847 219.5 L 848 220.5 L 848 294.5 L 847 295.5 L 846 311.5 L 843 325.5 L 835 348.5 L 828 362.5 Q 813.2 389.2 790.5 408 Q 766.1 428.6 731.5 439 L 705.5 444 L 672.5 444 L 642.5 438 Q 623.8 432.2 608.5 423 Q 587.9 410.6 572 393.5 Q 546.9 367.1 535 327.5 L 530 299.5 L 530 214.5 L 537 179.5 L 551 148.5 Q 564.3 125.8 583.5 109 Q 604.5 90 633.5 79 L 657.5 72 L 669.5 71 L 670.5 70 L 685.5 70 L 686.5 69 Z M 688 70 L 688 72 L 686 73 L 683 73 L 686 72 L 686 71 L 673 72 L 678 73 L 668 73 L 667 74 L 662 73 L 662 75 L 658 74 L 657 76 L 654 75 L 651 76 L 653 76 L 653 77 L 649 76 L 649 78 L 648 77 L 646 78 L 644 77 L 644 79 L 643 78 L 642 80 L 641 79 L 639 80 Q 636 79 637 82 Q 634 83 635 80 Q 632 79 633 83 L 631 84 L 631 82 Q 628 81 629 84 L 628 83 L 621 86 L 621 88 L 620 87 L 617 88 L 617 90 L 615 89 L 614 92 L 613 91 L 611 92 L 608 95 L 607 94 L 605 97 Q 602 96 603 99 L 600 100 L 598 100 L 597 102 Q 596 104 595 102 L 591 106 Q 588 105 589 108 L 586 109 Q 583 110 585 112 L 581 114 L 579 118 L 576 121 L 575 120 L 567 129 L 567 131 L 566 130 L 565 134 L 564 133 L 563 136 L 561 136 L 562 138 Q 563 140 561 139 L 559 139 Q 560 142 558 141 L 558 143 L 557 143 L 557 145 L 556 145 L 552 153 Q 553 157 550 156 L 546 162 L 547 164 L 545 164 L 546 166 L 546 167 L 545 165 L 542 173 L 542 175 L 542 177 L 541 175 L 540 179 L 540 181 Q 541 184 539 183 L 539 185 L 538 190 L 536 190 L 537 192 L 537 195 L 536 194 L 535 194 L 536 199 L 534 199 L 535 201 Q 537 208 533 207 Q 532 210 535 212 L 534 212 Q 535 214 532 216 Q 531 218 534 217 L 533 220 L 533 221 L 531 222 L 531 295 L 533 294 L 534 297 Q 535 299 532 298 L 532 301 L 534 300 L 533 302 L 535 305 L 534 305 L 534 306 Q 537 305 535 313 L 536 314 Q 533 313 534 316 L 536 316 L 535 320 L 538 324 L 537 329 L 539 329 L 538 332 L 540 332 Q 538 338 542 337 L 541 340 L 543 346 L 546 347 Q 544 349 548 352 L 548 357 L 551 357 L 550 359 L 552 360 L 550 361 L 552 361 Q 554 362 552 364 L 554 364 L 553 366 L 557 369 L 556 371 L 558 371 Q 560 372 558 374 L 560 374 L 562 378 L 565 381 L 564 382 L 566 385 L 571 388 L 572 391 Q 575 390 574 393 L 578 394 L 577 397 L 584 402 Q 586 401 585 404 L 590 408 L 592 408 L 595 412 L 597 411 L 597 414 L 599 413 L 599 415 L 601 414 L 604 416 L 603 418 L 607 418 L 608 421 L 612 422 Q 613 425 615 423 L 620 425 Q 622 424 621 427 L 626 430 L 628 429 L 628 431 L 631 430 L 634 433 L 635 432 L 644 436 Q 643 438 646 437 L 646 435 L 658 438 L 657 440 L 659 440 L 660 438 L 661 441 Q 666 443 665 439 Q 668 438 667 441 L 671 442 L 676 441 L 687 441 L 688 442 L 700 441 L 703 442 L 705 441 L 708 442 L 710 442 L 711 440 L 712 440 Q 711 443 716 441 L 719 439 Q 718 441 721 440 L 720 439 L 722 439 L 722 437 L 728 436 L 729 438 L 729 436 L 732 437 L 734 437 L 732 436 L 736 434 L 740 435 L 739 434 L 742 432 L 746 433 L 746 431 L 748 432 L 747 431 L 749 431 L 759 426 Q 761 427 760 425 L 762 425 Q 762 422 767 423 Q 769 422 767 421 L 771 419 L 773 419 L 774 417 Q 775 414 777 416 L 781 414 L 780 413 L 784 411 Q 786 412 785 409 L 787 409 L 788 407 L 796 402 L 801 394 Q 803 395 802 393 Q 804 388 806 391 L 810 386 Q 809 383 812 384 L 816 376 L 818 373 L 822 370 L 827 362 L 827 359 L 830 356 L 829 355 L 833 348 Q 835 349 834 347 L 833 347 L 832 346 L 835 345 L 834 343 L 836 343 L 835 341 L 837 338 Q 839 339 838 336 L 836 336 L 839 334 L 838 332 Q 841 330 839 329 Q 838 326 841 327 L 841 324 L 841 320 L 843 320 L 842 316 L 845 304 L 844 301 Q 843 298 846 299 L 845 296 L 845 220 L 846 219 Q 847 214 844 215 L 845 211 Q 846 205 843 204 L 844 201 L 842 200 L 843 198 Q 844 192 841 190 Q 842 185 839 186 L 838 183 L 839 181 L 837 181 L 838 179 Q 839 175 837 176 L 834 173 L 836 173 Q 837 170 835 171 L 831 165 L 832 163 L 831 163 Q 832 161 829 160 L 830 159 L 828 158 L 827 153 L 825 153 L 826 151 L 823 146 L 822 146 L 822 145 L 818 142 L 819 140 L 817 139 L 812 130 L 811 130 L 811 129 Q 810 126 809 128 L 808 126 L 805 124 L 801 118 L 800 118 L 795 113 L 794 113 L 788 108 L 789 107 L 780 100 L 778 100 L 776 98 L 775 98 L 772 95 L 771 95 L 768 94 L 768 93 L 762 88 Q 756 90 757 86 L 752 84 L 750 84 Q 747 85 748 83 L 747 83 L 746 81 L 744 82 L 743 80 L 742 82 L 740 80 L 739 80 L 736 80 L 730 76 L 728 77 L 727 75 L 724 76 L 726 76 L 726 77 L 724 76 Q 720 77 721 75 L 720 75 Q 715 76 716 73 L 713 73 L 709 73 L 700 73 L 705 72 L 705 71 L 692 71 L 690 72 L 690 71 L 688 70 Z M 534 202 L 533 205 L 534 205 L 534 202 Z M 534 307 L 533 312 L 534 312 L 534 307 Z M 682 442 L 682 443 L 684 443 L 682 442 Z " /><path fill="rgb(254,214,87)" stroke="rgb(254,214,87)" stroke-width="1" opacity="1" d="M 532.5 222 L 533 292.5 L 532 292.5 L 532.5 222 Z " /><path fill="rgb(254,214,87)" stroke="rgb(254,214,87)" stroke-width="1" opacity="1" d="M 597.5 468 L 620.5 478 L 653.5 487 L 664.5 488 L 665.5 489 L 674.5 489 L 675.5 490 L 701.5 490 L 702.5 489 L 719.5 488 L 736.5 484 L 759.5 477 L 775.5 469 L 780.5 468 L 792.5 471 L 797.5 471 L 808.5 475 L 822.5 478 L 842.5 486 L 864.5 497 Q 894.3 514.2 918 537.5 L 917.5 539 L 914 537.5 Q 916.8 535.8 912.5 534 Q 911.3 536.3 910 533.5 L 906.5 529 Q 903.2 530.1 904 527.5 L 902 527.5 L 900.5 525 L 895 521.5 L 893.5 518 L 891.5 518 L 889 517.5 L 889.5 516 L 887 515.5 L 887.5 514 L 884 513 L 883.5 511 L 881 512 L 880.5 509 L 878.5 510 L 877.5 507 L 876 507.5 L 876.5 506 L 874.5 507 L 872.5 504 L 871 504.5 L 869.5 502 L 868 502.5 L 867.5 501 L 866 501.5 Q 868.3 500.3 865.5 499 L 862 499.5 L 861.5 497 L 860 497.5 L 859.5 496 L 858.5 498 L 858 495 L 855.5 496 L 855.5 494 L 846.5 490 L 845 490.5 L 845.5 489 L 843.5 490 L 843 488 L 840.5 487 L 839.5 488 Q 837.7 484.9 836 486.5 L 835.5 485 L 833.5 486 L 833.5 484 L 830 485 Q 831.5 481.3 828.5 482 L 828.5 484 Q 826.3 484.8 827 482.5 L 825 482.5 L 825.5 481 L 822.5 482 Q 821 478.5 819.5 481 L 816 480 Q 817.1 477.3 814.5 478 L 813 478.5 Q 813.8 476.3 811.5 477 L 805.5 475 L 803 476 Q 804.3 472.7 799.5 474 L 798 474.5 Q 798.8 471.9 795.5 473 Q 794.2 470.7 789.5 472 L 788 472.5 L 787.5 471 L 783.5 472 L 783.5 470 L 777 470.5 L 777.5 472 L 775.5 471 L 774.5 473 L 772.5 472 L 769 474.5 L 768.5 476 L 766.5 475 L 761 477 L 760.5 479 L 759 478.5 Q 759.8 480.8 757.5 480 L 755.5 480 Q 752.2 478.9 753 481.5 L 751.5 481 L 750 481.5 L 750.5 483 L 737.5 486 L 734.5 485 L 734.5 487 L 732.5 486 L 726.5 489 L 722.5 489 Q 713.5 488 708.5 491 L 669.5 491 L 662.5 489 L 656.5 489 L 654.5 490 L 651.5 488 L 643 487 Q 644.1 484.3 641.5 485 L 638.5 486 L 635 485 Q 636.1 482.3 633.5 483 L 633.5 485 L 630.5 483 L 622 482 L 621.5 480 L 620 480.5 L 620.5 479 L 618.5 480 L 615.5 477 L 614.5 478 L 613 477.5 L 613.5 476 L 604.5 472 L 603 472.5 L 602.5 471 L 601 471.5 Q 601.6 468.8 595.5 470 L 595.5 472 Q 590 470.5 588.5 473 L 583.5 472 Q 580.5 474.8 575 474 L 574.5 476 L 571.5 475 L 571.5 477 L 567.5 476 L 567.5 478 L 565.5 477 Q 564 480.5 562.5 478 Q 560.3 477.3 561 479.5 L 559 479.5 L 558.5 481 L 557.5 479 L 555.5 482 L 551.5 483 L 550 482.5 L 549.5 484 L 548.5 482 L 546.5 485 L 544.5 484 L 544 486 L 541.5 485 L 541 487 L 535 488 L 534.5 490 L 532.5 490 L 522 494.5 L 522.5 496 Q 517.1 494.1 518 497.5 L 516.5 497 L 515 497.5 L 516 499.5 L 515 499.5 Q 515.8 497.3 513.5 498 L 512.5 501 L 511 500.5 L 511 502 Q 507.3 500.5 508 503.5 Q 506.8 506.3 505.5 504 L 499 507 L 497.5 511 L 495.5 510 L 495.5 512 L 492.5 514 L 491.5 513 L 488.5 516 L 485 517.5 L 485.5 519 L 484.5 518 L 480.5 522 Q 478.3 521.3 479 523.5 L 475.5 528 L 471.5 529 L 462 537.5 Q 463.3 541.7 458.5 540 L 465.5 532 Q 496.1 503.1 537.5 485 L 572.5 473 L 597.5 468 Z " /><path fill="rgb(254,214,87)" stroke="rgb(254,214,87)" stroke-width="1" opacity="1" d="M 318.5 601 L 319 617.5 L 318 617.5 L 318.5 601 Z " /><path fill="rgb(254,214,87)" stroke="rgb(254,214,87)" stroke-width="1" opacity="1" d="M 453.5 601 L 454 617.5 L 453 617.5 L 453.5 601 Z " /><path fill="rgb(254,214,87)" stroke="rgb(254,214,87)" stroke-width="1" opacity="1" d="M 325.5 618 L 328 618.5 L 325.5 619 L 325.5 618 Z " /><path fill="rgb(254,214,87)" stroke="rgb(254,214,87)" stroke-width="1" opacity="1" d="M 443.5 618 L 447 618.5 L 443.5 619 L 443.5 618 Z " /><path fill="rgb(254,214,87)" stroke="rgb(254,214,87)" stroke-width="1" opacity="1" d="M 410.5 638 L 411 844.5 L 410 844.5 L 410.5 638 Z " /><path fill="rgb(254,214,87)" stroke="rgb(254,214,87)" stroke-width="1" opacity="1" d="M 237.5 855 L 238.5 857 L 237.5 855 Z " /><path fill="rgb(254,214,87)" stroke="rgb(254,214,87)" stroke-width="1" opacity="1" d="M 360.5 857 L 361 860.5 L 360 860.5 L 360.5 857 Z " /><path fill="rgb(254,214,87)" stroke="rgb(254,214,87)" stroke-width="1" opacity="1" d="M 241.5 859 L 242.5 861 L 241.5 859 Z " /><path fill="rgb(254,214,87)" stroke="rgb(254,214,87)" stroke-width="1" opacity="1" d="M 409.5 859 L 410 861.5 L 409 861.5 L 409.5 859 Z " /><path fill="rgb(254,214,87)" stroke="rgb(254,214,87)" stroke-width="1" opacity="1" d="M 629.5 904 L 630.5 905 L 914.5 905 Q 916.3 902.2 918 906.5 L 628.5 907 L 627.5 908 L 600.5 908 L 600.5 907 L 626.5 907 L 627 905 L 628.5 905 L 629.5 904 Z " /><path fill="rgb(254,214,87)" stroke="rgb(254,214,87)" stroke-width="1" opacity="1" d="M 341.5 918 L 335.5 925 L 341.5 918 Z " /><path fill="rgb(254,214,87)" stroke="rgb(254,214,87)" stroke-width="1" opacity="1" d="M 231.5 922 L 232.5 924 L 231.5 922 Z " /><path fill="rgb(254,214,87)" stroke="rgb(254,214,87)" stroke-width="1" opacity="1" d="M 197.5 927 L 198.5 929 L 197.5 927 Z " /><path fill="rgb(254,214,87)" stroke="rgb(254,214,87)" stroke-width="1" opacity="1" d="M 383.5 929 L 382.5 931 L 383.5 929 Z " /><path fill="rgb(254,214,87)" stroke="rgb(254,214,87)" stroke-width="1" opacity="1" d="M 374.5 938 L 373.5 940 L 374.5 938 Z " /><path fill="rgb(254,214,87)" stroke="rgb(254,214,87)" stroke-width="1" opacity="1" d="M 279.5 940 L 282 940.5 L 279.5 941 L 279.5 940 Z " /><path fill="rgb(254,214,87)" stroke="rgb(254,214,87)" stroke-width="1" opacity="1" d="M 292.5 940 L 295 940.5 L 292.5 941 L 292.5 940 Z " /><path fill="rgb(255,255,0)" stroke="rgb(255,255,0)" stroke-width="1" opacity="0.00392156862745098" d="M 788.5 100 L 789.5 102 L 788.5 100 Z " /><path fill="rgb(255,255,0)" stroke="rgb(255,255,0)" stroke-width="1" opacity="0.00392156862745098" d="M 802.5 113 L 803.5 115 L 802.5 113 Z " /><path fill="rgb(255,255,0)" stroke="rgb(255,255,0)" stroke-width="1" opacity="0.00392156862745098" d="M 805.5 116 L 806.5 118 L 805.5 116 Z " /><path fill="rgb(255,255,0)" stroke="rgb(255,255,0)" stroke-width="1" opacity="0.00392156862745098" d="M 826.5 143 L 827.5 145 L 826.5 143 Z " /><path fill="rgb(255,255,0)" stroke="rgb(255,255,0)" stroke-width="1" opacity="0.00392156862745098" d="M 527.5 209 L 528 211.5 L 527 211.5 L 527.5 209 Z " /><path fill="rgb(255,255,0)" stroke="rgb(255,255,0)" stroke-width="1" opacity="0.00392156862745098" d="M 850.5 214 L 851 220.5 L 850 220.5 L 850.5 214 Z " /><path fill="rgb(255,255,0)" stroke="rgb(255,255,0)" stroke-width="1" opacity="0.00392156862745098" d="M 850.5 296 L 851 299.5 L 850 299.5 L 850.5 296 Z " /><path fill="rgb(255,255,0)" stroke="rgb(255,255,0)" stroke-width="1" opacity="0.00392156862745098" d="M 567.5 392 L 568.5 394 L 567.5 392 Z " /><path fill="rgb(255,255,0)" stroke="rgb(255,255,0)" stroke-width="1" opacity="0.00392156862745098" d="M 808.5 394 L 806.5 397 L 808.5 394 Z " /><path fill="rgb(255,255,0)" stroke="rgb(255,255,0)" stroke-width="1" opacity="0.00392156862745098" d="M 802.5 400 L 801.5 402 L 802.5 400 Z " /><path fill="rgb(255,255,0)" stroke="rgb(255,255,0)" stroke-width="1" opacity="0.00392156862745098" d="M 583.5 408 L 584.5 410 L 583.5 408 Z " /><path fill="rgb(255,255,0)" stroke="rgb(255,255,0)" stroke-width="1" opacity="0.00392156862745098" d="M 786.5 414 L 785.5 416 L 786.5 414 Z " /><path fill="rgb(255,255,0)" stroke="rgb(255,255,0)" stroke-width="1" opacity="0.00392156862745098" d="M 588.5 466 L 591 466.5 L 588.5 467 L 588.5 466 Z " /><path fill="rgb(255,255,0)" stroke="rgb(255,255,0)" stroke-width="1" opacity="0.00392156862745098" d="M 894.5 513 L 896.5 516 L 894.5 513 Z " /><path fill="rgb(255,255,0)" stroke="rgb(255,255,0)" stroke-width="1" opacity="0.00392156862745098" d="M 466.5 527 L 463.5 531 L 466.5 527 Z " /><path fill="rgb(254,186,0)" stroke="rgb(254,186,0)" stroke-width="1" opacity="1" d="M 115 540 L 600 540 L 600 1025 L 115 1025 L 115 540 Z M 318 601 L 318 618 L 341 620 Q 350 622 356 627 Q 360 631 361 638 L 361 857 L 360 858 L 359 877 L 356 891 Q 352 905 344 916 Q 334 929 317 936 L 307 939 L 293 940 L 292 941 L 273 940 L 256 936 Q 241 931 231 922 Q 225 917 223 910 L 233 908 L 238 905 Q 246 899 249 888 Q 251 869 243 861 L 235 853 L 222 849 L 210 849 L 197 854 Q 186 861 183 877 L 183 894 L 186 907 L 190 917 L 197 928 Q 212 945 235 955 L 258 962 L 272 963 L 273 964 L 309 964 L 310 963 L 318 963 L 329 961 Q 356 955 374 940 Q 387 928 396 912 L 405 889 L 409 870 L 410 846 L 411 845 L 411 635 L 413 631 Q 418 623 428 621 L 437 619 L 454 618 L 454 602 L 454 601 L 318 601 Z " /><path fill="rgb(254,215,87)" stroke="rgb(254,215,87)" stroke-width="1" opacity="1" d="M 688 70 L 690 70.5 L 689.5 72 L 691.5 71 L 704.5 71 L 704.5 72 L 700 72.5 L 708.5 73 L 712.5 73 L 715.5 73 Q 714.5 76 719.5 75 L 721 74.5 Q 720.2 77.1 723.5 76 L 727 75 L 727.5 77 L 729.5 76 L 735.5 80 L 738.5 80 L 740 79.5 L 741.5 82 L 742.5 80 L 743.5 82 L 746 81 L 746.5 83 L 748 82.5 Q 747.3 84.8 749.5 84 L 751.5 84 L 757 86 Q 755.6 89.7 761.5 88 L 768 92.5 L 767.5 94 L 769.5 93 L 769.5 95 L 771.5 94 L 772.5 96 L 774 95.5 Q 771.8 96.8 774.5 98 L 776 97.5 L 776.5 99 Q 778 96.5 779.5 100 L 790 107.5 Q 787.3 109.3 791.5 111 L 793 110.5 Q 790.8 111.8 793.5 113 L 795 112.5 L 795.5 114 L 797 113.5 L 796 114.5 L 799.5 118 L 801 117.5 L 805 124 L 808 125.5 L 808.5 128 Q 810.3 125.3 812 129.5 L 816.5 139 L 819 139.5 L 818 141.5 L 823 145.5 L 826 150.5 L 825 152.5 L 827 152.5 L 828 158 L 830 158.5 L 829 159.5 L 832 162.5 L 833 164.5 L 832 167.5 L 833.5 170 L 835 169.5 L 834.5 171 Q 836.8 170.3 836 172.5 L 835 174.5 L 838 176 L 837 180.5 L 839 180.5 L 838 182.5 L 839 186 Q 842.3 184.7 841 189.5 Q 843.7 191.8 843 197.5 L 842 200 L 844 200.5 L 843 203.5 Q 845.8 205.2 845 210.5 L 844 215 Q 847.3 213.7 846 218.5 L 845 219.5 L 845 295.5 L 846 299 Q 843.3 297.9 844 300.5 L 845 303.5 L 842 315.5 L 843 319.5 L 841 323.5 L 841 327 Q 838.3 325.9 839 328.5 Q 841.5 330 838 331.5 L 839 333.5 L 836 335.5 L 838 336 Q 839.1 338.7 836.5 338 L 837 339.5 L 834.5 345 Q 833.2 342.8 832 345.5 L 832.5 347 L 834 346.5 Q 834.8 348.8 832.5 348 L 832.5 350 L 831 349.5 L 832 351.5 L 830 351.5 L 829 354.5 L 830 355.5 L 827 358.5 L 827 361.5 L 822 370 L 820 370.5 L 820.5 372 Q 819.3 369.8 818 372.5 L 819 374.5 Q 817 378.2 815 376.5 L 812 384 Q 809.3 382.9 810 385.5 L 804.5 392 Q 803.2 389.8 802 392.5 Q 802.8 394.8 800.5 394 L 796 402 L 789 405.5 L 789.5 407 L 788 406.5 L 786.5 409 L 785 408.5 Q 786.1 411.8 783.5 411 L 780 412.5 L 780.5 414 L 776.5 416 Q 775.3 413.8 774 416.5 L 771.5 420 L 768.5 419 L 766.5 423 Q 762.3 422.3 761.5 425 L 760 424.5 Q 760.8 426.8 758.5 426 L 744.5 433 L 741.5 432 L 739 433.5 L 739.5 435 L 735.5 436 L 732.5 435 L 732.5 436 L 734 436.5 L 731.5 437 L 729 436 L 728.5 438 L 727.5 436 L 722 437 L 720.5 440 Q 718.3 440.8 719 438.5 L 715.5 441 Q 711.1 442.5 712 439.5 L 711 439.5 L 709.5 442 L 707.5 442 L 704.5 441 L 702.5 442 L 699.5 441 L 687.5 442 L 686.5 441 L 675.5 441 L 670.5 442 L 667 441 Q 668 438 665 439 Q 666.4 442.7 660.5 441 L 659.5 438 L 659 440 L 657 439.5 L 657.5 438 L 646.5 436 L 644 437 L 643.5 435 L 642 435.5 L 642.5 434 Q 636.8 434.7 634.5 432 L 633.5 433 L 630.5 430 L 627.5 431 L 621 426.5 Q 621.8 424.3 619.5 425 L 614.5 423 Q 613 425.5 611.5 422 L 608 421 L 606.5 418 L 603 417.5 L 603.5 416 L 600.5 414 L 599 414.5 L 598.5 413 L 597 413.5 L 596.5 411 L 594.5 412 L 591.5 408 L 589.5 408 L 585 403.5 Q 585.8 401.3 583.5 402 L 575 394.5 L 575.5 393 Q 572.9 393.7 574 391 L 571.5 391 L 570.5 388 L 566 384.5 L 564 381.5 Q 566.3 380.3 563.5 379 L 562 379.5 L 562 377.5 L 559.5 374 L 557 372.5 L 557.5 371 L 556 370.5 L 557 368.5 L 553 365.5 L 553.5 364 L 551 362.5 L 551.5 361 L 550 360.5 L 552 359.5 L 550 358.5 L 550.5 357 L 548 357 L 548 351.5 L 545 350.5 L 545.5 347 L 543 345.5 L 541 339.5 L 542 337 Q 538 338.4 540 331.5 L 538 331.5 L 539 328.5 L 537 328.5 L 536 326.5 L 538 326.5 Q 538.6 320.9 535 319.5 L 536 315.5 L 534 315.5 Q 533.3 313.3 535.5 314 L 535 312.5 Q 536.5 305.5 533.5 306 L 533.5 305 L 535 304.5 Q 531.4 302.6 532 298 Q 534.7 299.1 534 296.5 L 532.5 294 L 531 294.5 L 531 221.5 L 533 221 L 533 219.5 L 534 217 Q 531.3 218.1 532 215.5 L 533.5 212 L 535 211.5 Q 532.2 210.4 533 207 Q 536.5 208.1 535 200.5 L 534 198.5 L 536 198.5 L 535 193.5 L 536 193.5 L 536.5 195 L 537 191.5 L 535 191.5 L 536.5 189 L 538 189.5 L 537 184.5 L 540 183 L 539 179.5 L 540.5 175 L 541.5 177 L 542 174.5 L 542 172.5 Q 543.5 163.5 549 158.5 L 548.5 157 L 550 157.5 Q 549.3 154.9 552 156 L 552 152.5 L 551 151.5 L 555 147.5 Q 552.8 146.2 555.5 145 L 557 144.5 L 556.5 143 L 558 142.5 L 557.5 141 Q 560.1 141.8 559 138.5 L 560.5 139 Q 562.8 139.8 562 137.5 L 561 135.5 L 563 135.5 L 563.5 133 L 565 133.5 L 565.5 130 L 567 130.5 L 567 128.5 L 574.5 120 Q 575.8 122.3 577 119.5 Q 574.8 118.3 577.5 117 L 579 117.5 L 580.5 114 L 585 111.5 Q 582.8 110.2 585.5 109 L 589 108 Q 587.9 105.3 590.5 106 L 594.5 102 Q 595.8 104.3 597 101.5 L 598.5 99 L 600.5 100 L 603 99 Q 601.9 96.3 604.5 97 L 604.5 95 L 606 95.5 L 607.5 93 Q 609 95.5 610.5 92 L 612.5 91 L 614 91.5 L 614.5 89 L 616.5 90 L 616.5 88 L 627.5 83 L 629 83.5 Q 628.3 81.3 630.5 82 L 633 83 Q 631.7 78.9 635 80 Q 634 83 637 82 Q 635.9 79.3 638.5 80 L 640.5 79 L 642 79.5 L 643.5 77 L 645.5 78 L 648 76.5 L 648.5 78 L 649 76 L 653.5 75 L 657 76 L 657.5 74 L 661.5 75 L 661.5 73 L 666.5 74 L 667.5 73 L 678 72.5 L 673 71.5 L 685.5 71 L 688 72 L 688 70 Z M 684 72 L 684 73 L 686 73 L 684 72 Z M 533 222 L 532 293 L 533 293 L 533 222 Z M 816 374 L 816 376 L 818 375 L 816 374 Z M 577 394 L 578 396 Q 579 393 577 394 Z " /><path fill="rgb(254,215,87)" stroke="rgb(254,215,87)" stroke-width="1" opacity="1" d="M 533.5 202 L 534 204.5 L 533 204.5 L 533.5 202 Z " /><path fill="rgb(254,215,87)" stroke="rgb(254,215,87)" stroke-width="1" opacity="1" d="M 533.5 307 L 534 311.5 L 533 311.5 L 533.5 307 Z " /><path fill="rgb(254,215,87)" stroke="rgb(254,215,87)" stroke-width="1" opacity="1" d="M 681.5 442 L 684 442.5 L 681.5 443 L 681.5 442 Z " /><path fill="rgb(254,215,87)" stroke="rgb(254,215,87)" stroke-width="1" opacity="1" d="M 595.5 470 Q 601.6 468.8 601 471.5 L 603 471.5 L 603.5 473 L 605.5 473 L 614 476.5 L 613.5 478 L 615.5 477 L 619.5 479 L 622 480.5 Q 621.1 483.5 625.5 482 L 630.5 483 L 632 482.5 L 631.5 484 L 635 483 Q 633.8 486 637.5 485 L 639 484.5 L 638.5 486 L 643 485 Q 641.8 488 645.5 487 L 655.5 490 Q 657 487.5 662.5 489 L 669.5 491 L 708.5 491 Q 713.5 488 722.5 489 L 723.5 490 L 727.5 488 L 732.5 486 L 734.5 487 L 734.5 485 L 739.5 486 L 739.5 484 L 743.5 485 L 751 482.5 L 750.5 481 L 752.5 482 L 753 480 L 756.5 481 L 759 480 L 759.5 478 L 761 478.5 Q 760.3 476.3 762.5 477 L 767.5 475 L 769 475.5 L 770.5 473 L 773.5 472 L 775 472.5 L 775.5 471 L 777.5 472 L 777.5 470 L 784 470.5 L 783.5 472 L 787.5 471 L 788.5 473 Q 789.8 470.7 794.5 472 L 798 473 L 798.5 475 L 803 474 Q 801.9 476.7 804.5 476 L 806.5 476 L 813 477 L 813.5 479 L 816 478 Q 814.9 480.7 817.5 480 L 819.5 481 L 819.5 479 L 823.5 482 L 823.5 480 L 827 482.5 Q 826.3 484.8 828.5 484 L 828.5 482 L 830 482 Q 828.5 485.8 831.5 485 L 833.5 484 L 833.5 486 L 835.5 485 L 836.5 487 L 837.5 486 L 841.5 488 Q 843.8 487.3 843 489.5 L 844.5 489 L 858 495 L 858.5 498 L 859.5 496 L 860.5 498 L 862 497.5 L 862.5 500 L 865.5 499 L 868 501.5 L 868.5 503 Q 869.8 500.8 871 503.5 L 871.5 505 L 873 504.5 L 874.5 507 L 876.5 506 Q 880.2 508 878.5 510 L 880.5 509 L 881 512 L 883.5 511 L 884 513 L 888 514.5 L 887.5 516 L 890 516.5 L 889.5 518 L 892.5 519 L 894 518.5 L 895.5 522 L 897 521.5 L 896.5 523 L 898.5 522 L 899.5 525 L 902 526.5 L 902.5 528 L 904 527.5 Q 903.2 530.1 906.5 529 L 911.5 535 Q 913.3 532.3 915 536.5 L 914.5 538 L 918 539.5 L 917.5 906 Q 916 902.5 914.5 905 L 630.5 905 L 629.5 904 L 627 905 L 626.5 907 L 600 907 L 600 540 L 462.5 540 L 462 537.5 Q 466.4 531.4 474 528.5 L 473.5 527 L 475.5 528 L 479 522 L 492.5 512 L 494.5 512 L 496 511.5 L 495.5 510 L 497.5 511 L 499 507 L 506.5 503 L 508 503.5 L 508 502 Q 511.8 503.5 511 500.5 L 516.5 497 L 518 497.5 Q 517.1 494.1 522.5 496 L 522.5 494 L 533.5 489 L 535 489.5 Q 534.1 486.5 538.5 488 L 541 487 L 541.5 485 L 544 486 L 544.5 484 L 546.5 485 L 546.5 483 L 548 483.5 L 548.5 482 L 549.5 484 L 551.5 481 L 555.5 482 L 557.5 479 L 558.5 481 L 559.5 479 L 561 479.5 Q 560.3 477.3 562.5 478 L 566.5 478 L 568 477.5 L 567.5 476 L 573.5 475 L 575 475.5 Q 574.1 472.1 579.5 474 Q 581.8 471.3 587.5 472 L 589.5 472 L 596 471.5 L 595.5 470 Z " /><path fill="rgb(254,215,87)" stroke="rgb(254,215,87)" stroke-width="1" opacity="1" d="M 328.5 618 L 331 618.5 L 328.5 619 L 328.5 618 Z " /><path fill="rgb(254,215,87)" stroke="rgb(254,215,87)" stroke-width="1" opacity="1" d="M 414.5 628 L 413.5 630 L 414.5 628 Z " /><path fill="rgb(254,215,87)" stroke="rgb(254,215,87)" stroke-width="1" opacity="1" d="M 211.5 849 L 215 849.5 L 211.5 850 L 211.5 849 Z " /><path fill="rgb(254,215,87)" stroke="rgb(254,215,87)" stroke-width="1" opacity="1" d="M 216.5 849 L 220 849.5 L 216.5 850 L 216.5 849 Z " /><path fill="rgb(254,215,87)" stroke="rgb(254,215,87)" stroke-width="1" opacity="1" d="M 239.5 857 L 240.5 859 L 239.5 857 Z " /><path fill="rgb(254,215,87)" stroke="rgb(254,215,87)" stroke-width="1" opacity="1" d="M 360.5 861 L 361 863.5 L 360 863.5 L 360.5 861 Z " /><path fill="rgb(254,215,87)" stroke="rgb(254,215,87)" stroke-width="1" opacity="1" d="M 381.5 931 L 375.5 938 L 381.5 931 Z " /><path fill="rgb(254,215,87)" stroke="rgb(254,215,87)" stroke-width="1" opacity="1" d="M 208.5 938 L 209.5 940 L 208.5 938 Z " /><path fill="rgb(254,215,87)" stroke="rgb(254,215,87)" stroke-width="1" opacity="1" d="M 276.5 940 L 279 940.5 L 276.5 941 L 276.5 940 Z " /><path fill="rgb(254,215,87)" stroke="rgb(254,215,87)" stroke-width="1" opacity="1" d="M 274.5 963 L 277 963.5 L 274.5 964 L 274.5 963 Z " /><path fill="rgb(254,215,87)" stroke="rgb(254,215,87)" stroke-width="1" opacity="1" d="M 304.5 963 L 307 963.5 L 304.5 964 L 304.5 963 Z " /><path fill="rgb(254,254,254)" stroke="rgb(254,254,254)" stroke-width="1" opacity="0.9921568627450981" d="M 319 601 L 452.5 601 L 453 601.5 L 453 618 L 441.5 618 L 440.5 619 L 429.5 620 Q 419 622.5 413 629.5 L 410 637.5 L 410 856.5 L 409 857.5 L 409 865.5 L 404 890.5 L 395 912.5 Q 385.5 930 370.5 942 L 349.5 954 L 331.5 960 L 314.5 963 L 304.5 963 L 303.5 964 L 277.5 964 L 276.5 963 L 266.5 963 L 250.5 960 L 235.5 955 Q 214.1 946.4 200 930.5 Q 183.5 913 183 879.5 L 186 867.5 L 194.5 856 L 203.5 851 L 214.5 850 L 215.5 849 L 231.5 852 Q 239.7 855.3 244 862.5 L 249 875.5 L 249 885.5 Q 246.6 897.6 238.5 904 L 227.5 909 L 223 909 L 224 914.5 L 233.5 925 L 257.5 937 L 276.5 941 L 296.5 941 L 297.5 940 L 308.5 939 L 327.5 931 L 343 917.5 L 353 900.5 L 358 884.5 L 359 873.5 L 360 872.5 L 360 864.5 L 361 863.5 L 361 635.5 Q 359.2 628.3 353.5 625 L 342.5 620 L 331.5 619 L 330.5 618 L 319 618 L 319 601 Z " /></svg>